<svg width="16" height="6" viewBox="0 0 16 6" fill="none" xmlns="http://www.w3.org/2000/svg">
<path d="M1.28619 3.64068H3.15774V4.34875H0.404775V0.0709424H1.28619V3.64068ZM4.04961 2.72988C4.04961 2.41453 4.11033 2.13346 4.23177 1.88666C4.35321 1.63987 4.52754 1.44889 4.75475 1.31374C4.98391 1.17859 5.24932 1.11101 5.55096 1.11101C5.97992 1.11101 6.32954 1.24225 6.59985 1.50471C6.87211 1.76718 7.02391 2.12367 7.05525 2.57417L7.06112 2.79158C7.06112 3.2793 6.92499 3.67104 6.65273 3.96681C6.38047 4.26061 6.01517 4.40752 5.55684 4.40752C5.0985 4.40752 4.73222 4.26061 4.458 3.96681C4.18574 3.673 4.04961 3.27343 4.04961 2.76808V2.72988ZM4.89871 2.79158C4.89871 3.09322 4.95551 3.32435 5.06912 3.48497C5.18272 3.64362 5.3453 3.72295 5.55684 3.72295C5.7625 3.72295 5.92311 3.6446 6.03868 3.4879C6.15424 3.32925 6.21202 3.07658 6.21202 2.72988C6.21202 2.43412 6.15424 2.20495 6.03868 2.04238C5.92311 1.87981 5.76054 1.79852 5.55096 1.79852C5.34334 1.79852 5.18272 1.87981 5.06912 2.04238C4.95551 2.20299 4.89871 2.45273 4.89871 2.79158ZM8.03233 2.73576C8.03233 2.24804 8.14789 1.85532 8.37902 1.5576C8.6121 1.25988 8.9255 1.11101 9.3192 1.11101C9.66784 1.11101 9.93913 1.2305 10.133 1.46946L10.1683 1.16978H10.9381V4.24298C10.9381 4.52112 10.8744 4.76302 10.7471 4.96869C10.6217 5.17435 10.4445 5.33105 10.2153 5.43877C9.98613 5.5465 9.71779 5.60037 9.41028 5.60037C9.17719 5.60037 8.94998 5.55336 8.72865 5.45934C8.50731 5.36728 8.33984 5.2478 8.22624 5.1009L8.60231 4.5838C8.81385 4.8208 9.07044 4.9393 9.37208 4.9393C9.59733 4.9393 9.77264 4.87858 9.89799 4.75714C10.0233 4.63766 10.086 4.46726 10.086 4.24592V4.07552C9.89016 4.29685 9.63259 4.40752 9.31332 4.40752C8.93137 4.40752 8.6219 4.25865 8.38489 3.96093C8.14985 3.66125 8.03233 3.26461 8.03233 2.77102V2.73576ZM8.88142 2.79746C8.88142 3.08539 8.93921 3.31162 9.05477 3.47615C9.17033 3.63872 9.32899 3.72001 9.53074 3.72001C9.78928 3.72001 9.97438 3.62305 10.086 3.42914V2.09233C9.97242 1.89841 9.78928 1.80146 9.53661 1.80146C9.33291 1.80146 9.17229 1.8847 9.05477 2.05119C8.93921 2.21768 8.88142 2.46644 8.88142 2.79746ZM12.0327 2.72988C12.0327 2.41453 12.0934 2.13346 12.2148 1.88666C12.3363 1.63987 12.5106 1.44889 12.7378 1.31374C12.967 1.17859 13.2324 1.11101 13.534 1.11101C13.963 1.11101 14.3126 1.24225 14.5829 1.50471C14.8552 1.76718 15.007 2.12367 15.0383 2.57417L15.0442 2.79158C15.0442 3.2793 14.908 3.67104 14.6358 3.96681C14.3635 4.26061 13.9982 4.40752 13.5399 4.40752C13.0816 4.40752 12.7153 4.26061 12.4411 3.96681C12.1688 3.673 12.0327 3.27343 12.0327 2.76808V2.72988ZM12.8818 2.79158C12.8818 3.09322 12.9386 3.32435 13.0522 3.48497C13.1658 3.64362 13.3284 3.72295 13.5399 3.72295C13.7456 3.72295 13.9062 3.6446 14.0217 3.4879C14.1373 3.32925 14.1951 3.07658 14.1951 2.72988C14.1951 2.43412 14.1373 2.20495 14.0217 2.04238C13.9062 1.87981 13.7436 1.79852 13.534 1.79852C13.3264 1.79852 13.1658 1.87981 13.0522 2.04238C12.9386 2.20299 12.8818 2.45273 12.8818 2.79158Z" fill="#171B1F"/>
</svg>
